<?xml version="1.0" encoding="utf-8"?>
<!-- Designed by Vexels.com - 2017 All Rights Reserved - https://vexels.com/terms-and-conditions/  -->

<svg version="1.1" id="Layer_1" xmlns="http://www.w3.org/2000/svg" xmlns:xlink="http://www.w3.org/1999/xlink" x="0px" y="0px"
	 width="1200px" height="1200px" viewBox="0 0 1200 1200" enable-background="new 0 0 1200 1200" xml:space="preserve">
<path fill="#1A1A1A" d="M56.555,687.978c0,0-14.332-12.165-0.613-25.55c0,0,28.046-22.758,34.896-29.607
	c6.857-6.88,11.843-10.6,11.843-10.6s0.614-37.394,16.511-65.443c15.897-28.051,37.086-65.758,60.159-81.037
	c0,0,134.712-115.167,336.526-119.95c0,0,36.547-58.796,109.649-52.432c0,0,15.897,3.181-3.174,14.298
	c0,0-27.01,39.721-1.587,55.629c0,0,217.711,73.095,349.615,389.337c0,0-1.598,4.776,31.786,9.537c0,0,125.546,25.423,147.79,68.333
	c0,0,1.591,6.356-14.306,1.594c0,0-44.497-14.306-74.681-1.594c0,0-39.732,14.306-66.753,4.769c0,0-14.298-9.538-19.059,3.189
	c0,0-33.384,17.48-50.868,22.248c0,0-22.237,6.349-22.237,23.836c0,0-6.371,9.522-15.897-7.95c0,0-27.021-34.96,25.434-92.176
	c0,0-11.135-23.828-36.558-38.134c0,0-58.803-65.167-85.814-84.226c-27.01-19.075-131.897-76.276-214.536-77.878
	c0,0-139.855-4.761-158.926,4.776c0,0-11.113,82.625,23.831,106.475c0,0,11.136,17.48-14.287,14.298
	c0,0-52.455-14.298-84.226-73.094c0,0-12.723-30.207-25.446-23.858c0,0-123.935,36.554-144.605,34.982
	C171.022,657.749,46.977,722.967,56.555,687.978z"/>
</svg>
